<svg width="182" height="36" viewBox="0 0 182 36" fill="none" xmlns="http://www.w3.org/2000/svg">
<g clip-path="url(#clip0_1165_6813)">
<path d="M40.7619 21.4585L40.59 21.6304L40.7619 21.4585L41.1057 21.1248L40.7619 21.4585ZM7.02705 21.4585L6.68323 21.1248L7.02705 21.4585L7.19896 21.6304L7.02705 21.4585Z" fill="#145FF2"/>
<path d="M40.7618 21.4585L40.5899 21.6304L40.7618 21.4585ZM7.02698 21.4585L7.19889 21.6304L7.02698 21.4585ZM43.027 19.2034L43.1989 19.0315L43.027 19.2034Z" fill="#145FF2"/>
<path d="M11.5371 35.3124C11.1428 35.7067 10.6169 35.9191 10.0607 35.9191C9.50456 35.9191 8.97872 35.7067 8.58434 35.3124L2.78996 29.5483C0.282091 27.0506 0.282091 22.9955 2.78996 20.4977L4.03378 19.264L4.20569 19.4359L4.3776 19.6079L4.72142 19.9517L6.29894 21.5191L6.64277 21.8528L6.81468 22.0247L6.98659 22.1966L5.74277 23.4303C5.31805 23.8551 5.07535 24.4213 5.07535 25.018C5.07535 25.6247 5.30793 26.1809 5.74277 26.6056L11.5473 32.3697C12.3461 33.1786 12.3461 34.5034 11.5371 35.3124Z" fill="#145FF2"/>
<path d="M45.0192 29.5483L39.2147 35.3124C38.8203 35.7068 38.2945 35.9191 37.7383 35.9191C37.1821 35.9191 36.6563 35.7068 36.2619 35.3124C35.4529 34.5034 35.4529 33.1787 36.2619 32.3798L42.0664 26.6157C42.4911 26.191 42.7237 25.6247 42.7237 25.0281C42.7237 24.4214 42.4911 23.8652 42.0664 23.4405L41.1664 22.5506L40.8226 22.2068L40.9945 22.0348L41.1664 21.8629L41.5102 21.5292L43.0877 19.9618L43.4316 19.618L43.6035 19.4461L43.7754 19.2742L45.0192 20.5079C47.5271 22.9955 47.5271 27.0506 45.0192 29.5483Z" fill="#145FF2"/>
<path d="M40.3675 15.8764L40.1956 16.0483L40.0236 16.2202L39.6798 16.5539L38.1023 18.1214L37.981 18.2326L37.7585 18.4551L37.5866 18.627L37.4147 18.7989L25.5023 6.96742C25.0776 6.5427 24.5113 6.31011 23.9046 6.31011C23.2978 6.31011 22.7315 6.5427 22.3068 6.96742L10.3843 18.809L10.2124 18.6371L10.0405 18.4652L9.81803 18.2427L9.7068 18.1315L8.11916 16.564L7.77534 16.2303L7.60343 16.0584L7.43152 15.8865L19.3439 4.04495C21.8517 1.54719 25.9371 1.54719 28.445 4.04495L40.0135 15.5427L40.3675 15.8764Z" fill="#145FF2"/>
<path d="M7.02705 21.4585L6.68323 21.1248L7.02705 21.4585L7.19896 21.6304L7.02705 21.4585ZM40.7619 21.4585L40.59 21.6304L40.7619 21.4585L41.1057 21.1248L40.7619 21.4585ZM43.027 19.2034L43.199 19.0315L43.027 19.2034Z" fill="#145FF2"/>
<path d="M7.02705 21.4585L6.68323 21.1248L7.02705 21.4585L7.19896 21.6304L7.02705 21.4585ZM40.7619 21.4585L40.59 21.6304L40.7619 21.4585L41.1057 21.1248L40.7619 21.4585ZM43.027 19.2034L43.199 19.0315L43.027 19.2034Z" fill="#145FF2"/>
<path d="M44.8372 17.4033L43.7046 18.5258L43.5327 18.6977L43.3608 18.8696L43.1889 19.0416L43.017 19.2135L42.6833 19.5573L41.1057 21.1247L40.7619 21.4584L40.59 21.6303L40.4181 21.8022L40.2462 21.964L40.0743 22.1359L28.2732 33.8663C27.1102 35.0292 25.5529 35.6663 23.8945 35.6663C22.2361 35.6663 20.6889 35.0292 19.5158 33.8663L7.71472 22.146L7.54281 21.9741L7.3709 21.8123L7.199 21.6404L7.02709 21.4685L6.68326 21.1348L5.10574 19.5674L4.77203 19.2337L4.60012 19.0618L4.42821 18.8899L4.2563 18.718L4.08439 18.546L2.96192 17.4236C0.555175 15.0269 0.555175 11.1236 2.96192 8.71684L8.76641 2.95279C9.48439 2.23481 10.6473 2.23481 11.3754 2.95279C12.1035 3.67077 12.1035 4.83369 11.3754 5.54155L5.58102 11.3056C4.61023 12.2764 4.61023 13.8539 5.58102 14.8247L6.70349 15.9371L6.8754 16.109L7.39113 16.6247L7.73495 16.9584L9.31248 18.5258L9.6563 18.8696L9.82821 19.0416L10.0001 19.2135L10.3439 19.5573L22.1451 31.2876C22.6203 31.7629 23.2473 32.0157 23.9147 32.0157C24.5821 32.0157 25.2192 31.7629 25.6844 31.2876L37.4855 19.5573L37.6574 19.3955L37.8293 19.2236L38.0012 19.0517L38.1732 18.8798L38.517 18.5359L40.0945 16.9685L40.4383 16.6348L40.6102 16.4629L40.7821 16.291L41.126 15.9472L42.2484 14.8348C43.2293 13.864 43.2293 12.2865 42.2484 11.3157L36.4541 5.55166C35.726 4.83369 35.726 3.68088 36.4541 2.9629C37.172 2.24492 38.3349 2.24492 39.063 2.9629L44.8675 8.72694C47.2541 11.1033 47.2541 15.0067 44.8372 17.4033Z" fill="#145FF2"/>
<path d="M65.5877 16.554C62.3214 16.0585 60.2989 15.3405 60.2989 13.3079C60.2989 11.2147 62.2607 9.8495 65.2843 9.8495C67.6101 9.87983 69.6731 10.8911 70.6742 12.4686L70.8056 12.681L73.9405 10.3956L73.8191 10.1832C72.1607 7.32141 69.3393 5.9259 65.1832 5.9259C62.1798 5.9259 59.4596 6.94725 57.882 8.66635C56.7596 9.88995 56.2034 11.427 56.2135 13.227C56.2135 18.8394 60.845 19.9922 65.1832 20.6394C69.0865 21.2057 70.7551 22.3282 70.7551 24.4113C70.7551 27.9405 66.5584 28.2135 65.2742 28.2135C63.5146 28.2135 60.2787 27.7079 58.4382 24.3102L58.3068 24.0675L55.2023 26.3124L55.3034 26.5248C57.2551 30.418 60.4101 32.2383 65.2438 32.2383C69.8652 32.2383 74.8202 30.1855 74.8506 24.4012C74.8809 18.7383 70.4113 17.2821 65.5877 16.554Z" fill="#EEF6FF"/>
<path d="M89.6247 6.60339C87.8955 6.60339 86.1461 6.61351 84.3865 6.62362C82.6371 6.63373 80.8775 6.64385 79.1483 6.64385H78.9056V31.7023H83.0113V24.1686H89.6247C95.3787 24.1281 97.9775 19.5674 97.9674 15.3405C97.9674 11.1236 95.3483 6.60339 89.6247 6.60339ZM92.8 18.5865C92.0315 19.527 90.9393 20.0225 89.6247 20.0225H83.0113V10.7292H89.6247C92.527 10.7292 93.8517 13.1461 93.8517 15.3809C93.8618 16.6146 93.4877 17.7472 92.8 18.5865Z" fill="#EEF6FF"/>
<path d="M105.764 6.63379H101.699V31.6922H105.764V6.63379Z" fill="#EEF6FF"/>
<path d="M127.03 23.6023L114.562 6.63379H111.427V31.6922H115.553V14.8652L127.951 31.6012L128.031 31.6922H131.126V6.63379H127.03V23.6023Z" fill="#EEF6FF"/>
<path d="M139.438 21.2461H151.917V17.0799H139.438V10.9821H152.433V6.63379H135.343V31.6922H152.524V27.3136H139.438V21.2461Z" fill="#EEF6FF"/>
<path d="M156.306 10.699H163.738V31.6922H167.864V10.699H175.266V6.63379H156.306V10.699Z" fill="#EEF6FF"/>
<path d="M178.29 0.0910645C176.733 0.0910645 175.479 1.345 175.479 2.9023C175.479 4.44949 176.733 5.71354 178.29 5.71354C179.837 5.71354 181.101 4.44949 181.101 2.9023C181.101 1.35511 179.837 0.0910645 178.29 0.0910645ZM178.29 5.16747C177.036 5.16747 176.025 4.15624 176.025 2.9023C176.025 1.64837 177.046 0.637131 178.29 0.637131C179.534 0.637131 180.555 1.64837 180.555 2.9023C180.555 4.15624 179.534 5.16747 178.29 5.16747Z" fill="#EEF6FF"/>
<path d="M179.331 3.01353C179.453 2.84162 179.524 2.63937 179.524 2.39668C179.524 2.07308 179.412 1.81016 179.19 1.62814C178.977 1.44612 178.684 1.3551 178.33 1.3551H177.248V4.22701H177.835V3.41802H178.33C178.371 3.41802 178.421 3.41802 178.472 3.41802L179.048 4.22701H179.756L179.058 3.24611C179.17 3.19555 179.261 3.11465 179.331 3.01353ZM177.835 1.94162H178.33C178.543 1.94162 178.704 1.98207 178.795 2.06297C178.856 2.11353 178.927 2.19443 178.927 2.39668C178.927 2.59892 178.846 2.67982 178.795 2.73038C178.694 2.8214 178.543 2.85173 178.33 2.85173H177.835V1.94162Z" fill="#EEF6FF"/>
</g>
<defs>
<clipPath id="clip0_1165_6813">
<rect width="180.202" height="36" fill="white" transform="translate(0.898926)"/>
</clipPath>
</defs>
</svg>
