<svg width="104" height="76" viewBox="0 0 104 76" fill="none" xmlns="http://www.w3.org/2000/svg">
<path d="M89.7601 43.4361L89.375 43.8232L89.7601 43.4361L90.5304 42.6846L89.7601 43.4361ZM14.1797 43.4361L13.4094 42.6846L14.1797 43.4361L14.5649 43.8232L14.1797 43.4361Z" fill="#145FF2"/>
<path d="M89.7678 43.4337L89.3826 43.8208L89.7678 43.4337ZM14.1874 43.4337L14.5725 43.8208L14.1874 43.4337ZM94.8427 38.3554L95.2279 37.9683L94.8427 38.3554Z" fill="#145FF2"/>
<path d="M24.2931 74.6327C23.4096 75.5208 22.2314 75.9991 20.9854 75.9991C19.7393 75.9991 18.5612 75.5208 17.6776 74.6327L4.6957 61.6524C-0.922982 56.0275 -0.922982 46.8957 4.6957 41.2709L7.48239 38.4927L7.86754 38.8798L8.2527 39.2669L9.023 40.0412L12.5573 43.5709L13.3276 44.3224L13.7128 44.7096L14.0979 45.0967L11.3113 47.875C10.3597 48.8314 9.81596 50.1067 9.81596 51.4503C9.81596 52.8166 10.337 54.0691 11.3113 55.0255L24.3158 68.0059C26.1056 69.8277 26.1056 72.8109 24.2931 74.6327Z" fill="#145FF2"/>
<path d="M99.3042 61.6525L86.2996 74.6329C85.416 75.521 84.2379 75.9992 82.9918 75.9992C81.7458 75.9992 80.5677 75.521 79.6841 74.6329C77.8716 72.8111 77.8716 69.8279 79.6841 68.0288L92.6886 55.0485C93.6402 54.0921 94.1612 52.8168 94.1612 51.4732C94.1612 50.1069 93.6402 48.8544 92.6886 47.8979L90.6722 45.8939L89.9019 45.1197L90.2871 44.7325L90.6722 44.3454L91.4425 43.5939L94.9769 40.0642L95.7472 39.2899L96.1323 38.9028L96.5175 38.5156L99.3042 41.2939C104.923 46.8959 104.923 56.0277 99.3042 61.6525Z" fill="#145FF2"/>
<path d="M88.8934 30.8635L88.5082 31.2506L88.1231 31.6377L87.3528 32.3892L83.8184 35.919L83.5465 36.1695L83.0481 36.6705L82.663 37.0576L82.2778 37.4447L55.589 10.8009C54.6375 9.84441 53.3688 9.32064 52.0094 9.32064C50.65 9.32064 49.3813 9.84441 48.4298 10.8009L21.7183 37.4675L21.3332 37.0804L20.948 36.6932L20.4496 36.1922L20.2004 35.9417L16.6434 32.412L15.8731 31.6605L15.4879 31.2734L15.1028 30.8862L41.7915 4.21959C47.4102 -1.40523 56.5633 -1.40523 62.1819 4.21959L88.1004 30.112L88.8934 30.8635Z" fill="#145FF2"/>
<path d="M14.1718 43.4361L13.4015 42.6846L14.1718 43.4361L14.5569 43.8232L14.1718 43.4361ZM89.7522 43.4361L89.367 43.8232L89.7522 43.4361L90.5225 42.6846L89.7522 43.4361ZM94.8271 38.3578L95.2123 37.9707L94.8271 38.3578Z" fill="#145FF2"/>
<path d="M14.1718 43.4361L13.4015 42.6846L14.1718 43.4361L14.5569 43.8232L14.1718 43.4361ZM89.7522 43.4361L89.367 43.8232L89.7522 43.4361L90.5225 42.6846L89.7522 43.4361ZM94.8271 38.3578L95.2123 37.9707L94.8271 38.3578Z" fill="#145FF2"/>
<path d="M98.8836 34.3049L96.3461 36.8326L95.9609 37.2198L95.5758 37.6069L95.1906 37.994L94.8055 38.3812L94.0578 39.1554L90.5235 42.6852L89.7532 43.4367L89.368 43.8238L88.9829 44.2109L88.5977 44.5753L88.2126 44.9624L61.7731 71.3786C59.1676 73.9974 55.6786 75.4321 51.963 75.4321C48.2474 75.4321 44.7811 73.9974 42.153 71.3786L15.7134 44.9852L15.3283 44.5981L14.9431 44.2337L14.558 43.8466L14.1728 43.4594L13.4025 42.708L9.86816 39.1782L9.12051 38.4267L8.73536 38.0396L8.35021 37.6524L7.96506 37.2653L7.57991 36.8782L5.06509 34.3504C-0.327036 28.9533 -0.327036 20.1631 5.06509 14.7433L18.0696 1.76293C19.6782 0.14608 22.2836 0.14608 23.9149 1.76293C25.5461 3.37978 25.5461 5.99862 23.9149 7.5927L10.933 20.573C8.75802 22.7592 8.75802 26.3117 10.933 28.4979L13.4478 31.0029L13.833 31.39L14.9884 32.5514L15.7587 33.3029L19.2931 36.8326L20.0634 37.6069L20.4485 37.994L20.8337 38.3812L21.604 39.1554L48.0435 65.5716C49.1083 66.6419 50.513 67.2112 52.0083 67.2112C53.5036 67.2112 54.9309 66.6419 55.9731 65.5716L82.4127 39.1554L82.7978 38.7911L83.183 38.4039L83.5681 38.0168L83.9533 37.6297L84.7236 36.8554L88.2579 33.3257L89.0282 32.5742L89.4134 32.187L89.7985 31.7999L90.5688 31.0256L93.0836 28.5207C95.2813 26.3345 95.2813 22.782 93.0836 20.5958L80.1018 7.61547C78.4705 5.99862 78.4705 3.40255 80.1018 1.7857C81.7103 0.168847 84.3158 0.168847 85.947 1.7857L98.9515 14.766C104.298 20.1176 104.298 28.9078 98.8836 34.3049Z" fill="#145FF2"/>
</svg>
