<svg width="182" height="36" viewBox="0 0 182 36" fill="none" xmlns="http://www.w3.org/2000/svg">
<g clip-path="url(#clip0_1165_8195)">
<path d="M40.7619 21.4585L40.59 21.6304L40.7619 21.4585L41.1057 21.1248L40.7619 21.4585ZM7.02705 21.4585L6.68323 21.1248L7.02705 21.4585L7.19896 21.6304L7.02705 21.4585Z" fill="#145FF2"/>
<path d="M40.7618 21.4585L40.5899 21.6304L40.7618 21.4585ZM7.02698 21.4585L7.19889 21.6304L7.02698 21.4585ZM43.027 19.2034L43.1989 19.0315L43.027 19.2034Z" fill="#145FF2"/>
<path d="M11.5371 35.3125C11.1428 35.7069 10.6169 35.9192 10.0607 35.9192C9.50456 35.9192 8.97872 35.7069 8.58434 35.3125L2.78996 29.5484C0.282091 27.0507 0.282091 22.9956 2.78996 20.4979L4.03378 19.2642L4.20569 19.4361L4.3776 19.608L4.72142 19.9518L6.29894 21.5192L6.64277 21.8529L6.81468 22.0248L6.98659 22.1967L5.74277 23.4305C5.31805 23.8552 5.07535 24.4215 5.07535 25.0181C5.07535 25.6248 5.30793 26.181 5.74277 26.6057L11.5473 32.3698C12.3461 33.1788 12.3461 34.5035 11.5371 35.3125Z" fill="#145FF2"/>
<path d="M45.0192 29.5483L39.2147 35.3124C38.8203 35.7068 38.2945 35.9191 37.7383 35.9191C37.1821 35.9191 36.6563 35.7068 36.2619 35.3124C35.4529 34.5034 35.4529 33.1787 36.2619 32.3798L42.0664 26.6157C42.4911 26.191 42.7237 25.6247 42.7237 25.0281C42.7237 24.4214 42.4911 23.8652 42.0664 23.4405L41.1664 22.5506L40.8226 22.2068L40.9945 22.0348L41.1664 21.8629L41.5102 21.5292L43.0877 19.9618L43.4316 19.618L43.6035 19.4461L43.7754 19.2742L45.0192 20.5079C47.5271 22.9955 47.5271 27.0506 45.0192 29.5483Z" fill="#145FF2"/>
<path d="M40.3675 15.8764L40.1956 16.0483L40.0236 16.2202L39.6798 16.5539L38.1023 18.1214L37.981 18.2326L37.7585 18.4551L37.5866 18.627L37.4147 18.7989L25.5023 6.96742C25.0776 6.5427 24.5113 6.31011 23.9046 6.31011C23.2978 6.31011 22.7315 6.5427 22.3068 6.96742L10.3843 18.809L10.2124 18.6371L10.0405 18.4652L9.81803 18.2427L9.7068 18.1315L8.11916 16.564L7.77534 16.2303L7.60343 16.0584L7.43152 15.8865L19.3439 4.04495C21.8517 1.54719 25.9371 1.54719 28.445 4.04495L40.0135 15.5427L40.3675 15.8764Z" fill="#145FF2"/>
<path d="M7.02705 21.4585L6.68323 21.1248L7.02705 21.4585L7.19896 21.6304L7.02705 21.4585ZM40.7619 21.4585L40.59 21.6304L40.7619 21.4585L41.1057 21.1248L40.7619 21.4585ZM43.027 19.2034L43.199 19.0315L43.027 19.2034Z" fill="#145FF2"/>
<path d="M7.02705 21.4585L6.68323 21.1248L7.02705 21.4585L7.19896 21.6304L7.02705 21.4585ZM40.7619 21.4585L40.59 21.6304L40.7619 21.4585L41.1057 21.1248L40.7619 21.4585ZM43.027 19.2034L43.199 19.0315L43.027 19.2034Z" fill="#145FF2"/>
<path d="M44.8372 17.4033L43.7046 18.5258L43.5327 18.6977L43.3608 18.8696L43.1889 19.0416L43.017 19.2135L42.6833 19.5573L41.1057 21.1247L40.7619 21.4584L40.59 21.6303L40.4181 21.8022L40.2462 21.964L40.0743 22.1359L28.2732 33.8663C27.1102 35.0292 25.5529 35.6663 23.8945 35.6663C22.2361 35.6663 20.6889 35.0292 19.5158 33.8663L7.71472 22.146L7.54281 21.9741L7.3709 21.8123L7.199 21.6404L7.02709 21.4685L6.68326 21.1348L5.10574 19.5674L4.77203 19.2337L4.60012 19.0618L4.42821 18.8899L4.2563 18.718L4.08439 18.546L2.96192 17.4236C0.555175 15.0269 0.555175 11.1236 2.96192 8.71684L8.76641 2.95279C9.48439 2.23481 10.6473 2.23481 11.3754 2.95279C12.1035 3.67077 12.1035 4.83369 11.3754 5.54155L5.58102 11.3056C4.61023 12.2764 4.61023 13.8539 5.58102 14.8247L6.70349 15.9371L6.8754 16.109L7.39113 16.6247L7.73495 16.9584L9.31248 18.5258L9.6563 18.8696L9.82821 19.0416L10.0001 19.2135L10.3439 19.5573L22.1451 31.2876C22.6203 31.7629 23.2473 32.0157 23.9147 32.0157C24.5821 32.0157 25.2192 31.7629 25.6844 31.2876L37.4855 19.5573L37.6574 19.3955L37.8293 19.2236L38.0012 19.0517L38.1732 18.8798L38.517 18.5359L40.0945 16.9685L40.4383 16.6348L40.6102 16.4629L40.7821 16.291L41.126 15.9472L42.2484 14.8348C43.2293 13.864 43.2293 12.2865 42.2484 11.3157L36.4541 5.55166C35.726 4.83369 35.726 3.68088 36.4541 2.9629C37.172 2.24492 38.3349 2.24492 39.063 2.9629L44.8675 8.72694C47.2541 11.1033 47.2541 15.0067 44.8372 17.4033Z" fill="#145FF2"/>
<path d="M65.5877 16.5539C62.3214 16.0584 60.2989 15.3404 60.2989 13.3078C60.2989 11.2145 62.2607 9.84938 65.2843 9.84938C67.6101 9.87971 69.6731 10.8909 70.6742 12.4685L70.8056 12.6808L73.9405 10.3954L73.8191 10.1831C72.1607 7.32129 69.3393 5.92578 65.1832 5.92578C62.1798 5.92578 59.4596 6.94713 57.882 8.66623C56.7596 9.88983 56.2034 11.4269 56.2135 13.2269C56.2135 18.8393 60.845 19.9921 65.1832 20.6393C69.0865 21.2056 70.7551 22.328 70.7551 24.4112C70.7551 27.9404 66.5584 28.2134 65.2742 28.2134C63.5146 28.2134 60.2787 27.7078 58.4382 24.3101L58.3068 24.0674L55.2023 26.3123L55.3034 26.5247C57.2551 30.4179 60.4101 32.2381 65.2438 32.2381C69.8652 32.2381 74.8202 30.1853 74.8506 24.4011C74.8809 18.7381 70.4113 17.282 65.5877 16.5539Z" fill="#0D2C60"/>
<path d="M89.6247 6.60352C87.8955 6.60352 86.1461 6.61363 84.3865 6.62374C82.6371 6.63385 80.8775 6.64397 79.1483 6.64397H78.9056V31.7024H83.0113V24.1687H89.6247C95.3787 24.1282 97.9775 19.5676 97.9674 15.3406C97.9674 11.1237 95.3483 6.60352 89.6247 6.60352ZM92.8 18.5867C92.0315 19.5271 90.9393 20.0226 89.6247 20.0226H83.0113V10.7294H89.6247C92.527 10.7294 93.8517 13.1462 93.8517 15.381C93.8618 16.6147 93.4877 17.7473 92.8 18.5867Z" fill="#0D2C60"/>
<path d="M105.764 6.63379H101.699V31.6922H105.764V6.63379Z" fill="#0D2C60"/>
<path d="M127.03 23.6023L114.562 6.63379H111.427V31.6922H115.553V14.8652L127.951 31.6012L128.031 31.6922H131.126V6.63379H127.03V23.6023Z" fill="#0D2C60"/>
<path d="M139.438 21.2461H151.917V17.0799H139.438V10.9821H152.433V6.63379H135.343V31.6922H152.524V27.3136H139.438V21.2461Z" fill="#0D2C60"/>
<path d="M156.306 10.699H163.738V31.6922H167.864V10.699H175.266V6.63379H156.306V10.699Z" fill="#0D2C60"/>
<path d="M178.29 0.0910645C176.733 0.0910645 175.479 1.345 175.479 2.9023C175.479 4.44949 176.733 5.71354 178.29 5.71354C179.837 5.71354 181.101 4.44949 181.101 2.9023C181.101 1.35511 179.837 0.0910645 178.29 0.0910645ZM178.29 5.16747C177.036 5.16747 176.025 4.15624 176.025 2.9023C176.025 1.64837 177.046 0.637131 178.29 0.637131C179.534 0.637131 180.555 1.64837 180.555 2.9023C180.555 4.15624 179.534 5.16747 178.29 5.16747Z" fill="#0D2C60"/>
<path d="M179.331 3.01365C179.453 2.84174 179.524 2.6395 179.524 2.3968C179.524 2.0732 179.412 1.81028 179.19 1.62826C178.977 1.44624 178.684 1.35522 178.33 1.35522H177.248V4.22713H177.835V3.41815H178.33C178.371 3.41815 178.421 3.41815 178.472 3.41815L179.048 4.22713H179.756L179.058 3.24624C179.17 3.19568 179.261 3.11477 179.331 3.01365ZM177.835 1.94174H178.33C178.543 1.94174 178.704 1.98219 178.795 2.06309C178.856 2.11365 178.927 2.19455 178.927 2.3968C178.927 2.59905 178.846 2.67994 178.795 2.73051C178.694 2.82152 178.543 2.85186 178.33 2.85186H177.835V1.94174Z" fill="#0D2C60"/>
</g>
<defs>
<clipPath id="clip0_1165_8195">
<rect width="180.202" height="36" fill="white" transform="translate(0.898926)"/>
</clipPath>
</defs>
</svg>
